# xmcd CD database file
#
# Track frame offsets:
#	150
#	14968
#	28441
#	40590
#	54248
#	68330
#	81163
#	93968
#	106892
#	120284
#	133970
#	147302
#	159760
#	170074
#	184268
#	194659
#	206230
#	218076
#	229628
#	240701
#	254364
#	265746
#	276407
#	285112
#	295937
#	310136
#	321333
#	334248
#
# Disc length: 4597 seconds
#
# Revision: 0
# Processed by: cddbd v1.5.2PL0 Copyright (c) Steve Scherf et al.
# Submitted via: CDex 1.70beta1
#
DISCID=a411f31c
DTITLE=Sharkey Bonano - Sharkey And His Dixieland Kings
DYEAR=1900
DGENRE=Jazz
TTITLE0=Tin Roof Blues
TTITLE1=Tailgate Ramble
TTITLE2=That's a Plenty
TTITLE3=Shine
TTITLE4=Muskrat Ramble
TTITLE5=Bucket got a hole in it
TTITLE6=Fairwell Blues
TTITLE7=High Society
TTITLE8=Bourbon Street Bounce
TTITLE9=Over the Waves
TTITLE10=Pizza Pie Boogie
TTITLE11=I am satisfied with my gal
TTITLE12=She's Crying for Me
TTITLE13=Solo mio stomp
TTITLE14=Sharkey Strut
TTITLE15=Peculiar Rag
TTITLE16=In the mood
TTITLE17=Candy Baby
TTITLE18=That Da Da Strain
TTITLE19=Eccentric
TTITLE20=Temptation Rag
TTITLE21=Somebody stole my Gal
TTITLE22=The eyes of Texas are upon you
TTITLE23=Corrine Corrina
TTITLE24=Basin Street Blues
TTITLE25=Weary Blues
TTITLE26=I'm going home
TTITLE27=With a pack on  my back
EXTD=
EXTT0=
EXTT1=
EXTT2=
EXTT3=
EXTT4=
EXTT5=
EXTT6=
EXTT7=
EXTT8=
EXTT9=
EXTT10=
EXTT11=
EXTT12=
EXTT13=
EXTT14=
EXTT15=
EXTT16=
EXTT17=
EXTT18=
EXTT19=
EXTT20=
EXTT21=
EXTT22=
EXTT23=
EXTT24=
EXTT25=
EXTT26=
EXTT27=
PLAYORDER=
